<svg viewBox="0 0 1000 1000" xmlns="http://www.w3.org/2000/svg"><defs><linearGradient id="b" gradientTransform="rotate(90 .5 .5)"><stop offset="0%" stop-color="#c0ff85"/><stop offset="100%" stop-color="#a1ff50"/></linearGradient><clipPath id="a"><path fill="currentColor" d="M879 634q-11 134-135 184.5T498 875q-122 6-242-52.5T126 632q-10-132-14-274.5T246.5 180q138.5-35 254-36.5t217.5 61q102 62.5 137 179T879 634Z"/></clipPath></defs><g clip-path="url(#a)"><path fill="url(#b)" d="M879 634q-11 134-135 184.5T498 875q-122 6-242-52.5T126 632q-10-132-14-274.5T246.5 180q138.5-35 254-36.5t217.5 61q102 62.5 137 179T879 634Z"/></g></svg>